<!--?xml version="1.0" encoding="UTF-8" standalone="no"?-->
<!-- Created with Inkscape (http://www.inkscape.org/) -->

<svg xmlns:dc="http://purl.org/dc/elements/1.1/" xmlns:cc="http://creativecommons.org/ns#" xmlns:rdf="http://www.w3.org/1999/02/22-rdf-syntax-ns#" xmlns:svg="http://www.w3.org/2000/svg" xmlns="http://www.w3.org/2000/svg" xmlns:sodipodi="http://sodipodi.sourceforge.net/DTD/sodipodi-0.dtd" xmlns:inkscape="http://www.inkscape.org/namespaces/inkscape" id="svg4238" version="1.1" inkscape:version="0.91 r13725" width="741.32404" height="110.8371" viewBox="0 0 745 115" preserveAspectRatio="none">
  <metadata id="metadata4244">
    <rdf:rdf>
      <cc:work rdf:about="">
        <dc:format>image/svg+xml</dc:format>
        <dc:type rdf:resource="http://purl.org/dc/dcmitype/StillImage"></dc:type>
      </cc:work>
    </rdf:rdf>
  </metadata>
  <defs id="defs4242"></defs>
  <sodipodi:namedview pagecolor="#ffffff" bordercolor="#666666" borderopacity="1" objecttolerance="10" gridtolerance="10" guidetolerance="10" inkscape:pageopacity="0" inkscape:pageshadow="2" inkscape:window-width="640" inkscape:window-height="480" id="namedview4240"></sodipodi:namedview>
  <inkscape:clipboard style="color:#000000;clip-rule:nonzero;display:inline;overflow:visible;visibility:visible;opacity:1;isolation:auto;mix-blend-mode:normal;color-interpolation:sRGB;color-interpolation-filters:linearRGB;solid-color:#000000;solid-opacity:1;fill:none;fill-opacity:1;fill-rule:nonzero;stroke:#ffffff;stroke-width:2.7706575px;stroke-linecap:butt;stroke-linejoin:miter;stroke-miterlimit:4;stroke-dasharray:none;stroke-dashoffset:0;stroke-opacity:1;filter-blend-mode:normal;filter-gaussianBlur-deviation:0;color-rendering:auto;image-rendering:auto;shape-rendering:auto;text-rendering:auto;enable-background:accumulate" min="1.1410002,938.18612" max="742.46505,1049.0232"></inkscape:clipboard>
  <g transform="matrix(2.7706575,0,0,2.7706575,-283.03998,-930.05201)" id="text4136" style="font-style:normal;font-variant:normal;font-weight:normal;font-stretch:normal;font-size:40px;line-height:125%;font-family:roboto;-inkscape-font-specification:roboto;letter-spacing:0px;word-spacing:0px;fill:none;fill-opacity:1;stroke:#ffffff;stroke-width:1px;stroke-linecap:butt;stroke-linejoin:miter;stroke-opacity:1">
    <path inkscape:connector-curvature="0" id="path4141" style="font-style:normal;font-variant:normal;font-weight:bold;font-stretch:normal;font-family:roboto;-inkscape-font-specification:'roboto Bold';fill:none;fill-opacity:1;stroke:#ffffff;stroke-opacity:1" d="m 102.65625,366.64792 0,-28.4375 9.60938,0 q 5.01953,0 7.83203,1.95312 2.8125,1.95313 2.8125,5.83985 0,1.97265 -1.05469,3.53515 -1.03516,1.54297 -3.02734,2.32422 2.55859,0.54688 3.82812,2.34375 1.28906,1.79688 1.28906,4.16016 0,4.08203 -2.69531,6.1914 -2.69531,2.08985 -7.63672,2.08985 l -10.95703,0 z m 5.70313,-12.57813 0,8.20313 5.2539,0 q 2.26563,0 3.45703,-0.97656 1.19141,-0.9961 1.19141,-2.92969 0,-2.08985 -1.01563,-3.1836 -1.01562,-1.11328 -3.20312,-1.11328 l -5.68359,0 z m 0,-3.94531 4.10156,0 q 2.28515,0 3.51562,-0.9375 1.23047,-0.9375 1.23047,-2.73437 0,-1.97266 -1.25,-2.91016 -1.23047,-0.9375 -3.6914,-0.9375 l -3.90625,0 0,7.51953 z" class="CoVRoIuI_0"></path>
    <path inkscape:connector-curvature="0" id="path4143" style="font-style:normal;font-variant:normal;font-weight:bold;font-stretch:normal;font-family:roboto;-inkscape-font-specification:'roboto Bold';fill:none;fill-opacity:1;stroke:#ffffff;stroke-opacity:1" d="m 139.00391,350.41745 -2.08985,-0.0586 q -1.26953,0 -2.08984,0.52734 -0.82031,0.52734 -1.25,1.48437 l 0,14.27735 -5.68359,0 0,-21.13281 5.29296,0 0.25391,3.125 q 0.74219,-1.66016 1.91406,-2.57813 1.19141,-0.9375 2.73438,-0.9375 0.42968,0 0.78125,0.0781 0.37109,0.0586 0.74218,0.15625 l -0.60546,5.05859 z" class="CoVRoIuI_1"></path>
    <path inkscape:connector-curvature="0" id="path4145" style="font-style:normal;font-variant:normal;font-weight:bold;font-stretch:normal;font-family:roboto;-inkscape-font-specification:'roboto Bold';fill:none;fill-opacity:1;stroke:#ffffff;stroke-opacity:1" d="m 151.23047,367.05807 q -4.57031,0 -7.30469,-2.92968 -2.73437,-2.92969 -2.73437,-7.44141 l 0,-0.78125 q 0,-4.70703 2.57812,-7.75391 2.59766,-3.04687 6.95313,-3.02734 4.27734,0 6.64062,2.57813 2.36328,2.57812 2.36328,6.97265 l 0,3.10547 -12.61719,0 -0.0391,0.11719 q 0.15625,2.08984 1.38672,3.4375 1.25,1.34765 3.37891,1.34765 1.89453,0 3.14453,-0.37109 1.25,-0.39062 2.73437,-1.21094 l 1.54297,3.51563 q -1.28906,1.05469 -3.3789,1.75781 -2.08985,0.68359 -4.64844,0.68359 z m -0.50781,-17.53906 q -1.58204,0 -2.5,1.21094 -0.91797,1.21094 -1.13282,3.18359 l 0.0586,0.0977 6.99218,0 0,-0.50781 q 0,-1.81641 -0.85937,-2.89063 -0.83984,-1.09375 -2.55859,-1.09375 z" class="CoVRoIuI_2"></path>
    <path inkscape:connector-curvature="0" id="path4147" style="font-style:normal;font-variant:normal;font-weight:bold;font-stretch:normal;font-family:roboto;-inkscape-font-specification:'roboto Bold';fill:none;fill-opacity:1;stroke:#ffffff;stroke-opacity:1" d="m 168.26172,345.51511 0.2539,3.02734 q 1.05469,-1.62109 2.59766,-2.51953 1.54297,-0.89844 3.45703,-0.89844 3.20313,0 5,2.01172 1.79688,2.01172 1.79688,6.30859 l 0,13.20313 -5.72266,0 0,-13.1836 q 0,-2.1289 -0.85937,-3.00781 -0.85938,-0.89844 -2.59766,-0.89844 -1.13281,0 -2.03125,0.46875 -0.89844,0.44922 -1.50391,1.28907 l 0,15.33203 -5.70312,0 0,-21.13281 5.3125,0 z" class="CoVRoIuI_3"></path>
    <path inkscape:connector-curvature="0" id="path4149" style="font-style:normal;font-variant:normal;font-weight:bold;font-stretch:normal;font-family:roboto;-inkscape-font-specification:'roboto Bold';fill:none;fill-opacity:1;stroke:#ffffff;stroke-opacity:1" d="m 192.40234,340.33932 0,5.17579 3.55469,0 0,4.0039 -3.55469,0 0,10.76172 q 0,1.23047 0.50782,1.75781 0.50781,0.52735 1.36718,0.52735 0.44922,0 0.76172,-0.0391 0.33203,-0.0586 0.76172,-0.17578 l 0.48828,4.1211 q -0.85937,0.29297 -1.67969,0.42968 -0.82031,0.15625 -1.77734,0.15625 -2.94922,0 -4.55078,-1.62109 -1.58203,-1.62109 -1.58203,-5.13672 l 0,-10.78125 -3.08594,0 0,-4.0039 3.08594,0 0,-5.17579 5.70312,0 z" class="CoVRoIuI_4"></path>
    <path inkscape:connector-curvature="0" id="path4151" style="font-style:normal;font-variant:normal;font-weight:bold;font-stretch:normal;font-family:roboto;-inkscape-font-specification:'roboto Bold';fill:none;fill-opacity:1;stroke:#ffffff;stroke-opacity:1" d="m 225.42969,359.22604 q 0,-1.64062 -1.17188,-2.63672 -1.15234,-0.99609 -4.0625,-1.875 -5.07812,-1.46484 -7.67578,-3.47656 -2.59766,-2.01172 -2.59766,-5.50781 0,-3.49609 2.96875,-5.70313 2.98829,-2.22656 7.61719,-2.22656 4.6875,0 7.63672,2.5 2.94922,2.48047 2.85156,6.13281 l -0.0391,0.11719 -5.52734,0 q 0,-1.97265 -1.32813,-3.18359 -1.30859,-1.23047 -3.6914,-1.23047 -2.28516,0 -3.53516,1.01562 -1.25,1.01563 -1.25,2.59766 0,1.44531 1.32812,2.38281 1.34766,0.91797 4.62891,1.95313 4.70703,1.30859 7.12891,3.45703 2.42187,2.14844 2.42187,5.64453 0,3.65234 -2.89062,5.76172 -2.8711,2.10937 -7.59766,2.10937 -4.64844,0 -8.10547,-2.38281 -3.45703,-2.40234 -3.35937,-6.71875 l 0.0391,-0.11719 5.54687,0 q 0,2.53907 1.54297,3.73047 1.5625,1.17188 4.33594,1.17188 2.32422,0 3.55469,-0.95703 1.23047,-0.95703 1.23047,-2.5586 z" class="CoVRoIuI_5"></path>
    <path inkscape:connector-curvature="0" id="path4153" style="font-style:normal;font-variant:normal;font-weight:bold;font-stretch:normal;font-family:roboto;-inkscape-font-specification:'roboto Bold';fill:none;fill-opacity:1;stroke:#ffffff;stroke-opacity:1" d="m 241.77734,340.33932 0,5.17579 3.55469,0 0,4.0039 -3.55469,0 0,10.76172 q 0,1.23047 0.50782,1.75781 0.50781,0.52735 1.36718,0.52735 0.44922,0 0.76172,-0.0391 0.33203,-0.0586 0.76172,-0.17578 l 0.48828,4.1211 q -0.85937,0.29297 -1.67969,0.42968 -0.82031,0.15625 -1.77734,0.15625 -2.94922,0 -4.55078,-1.62109 -1.58203,-1.62109 -1.58203,-5.13672 l 0,-10.78125 -3.08594,0 0,-4.0039 3.08594,0 0,-5.17579 5.70312,0 z" class="CoVRoIuI_6"></path>
    <path inkscape:connector-curvature="0" id="path4155" style="font-style:normal;font-variant:normal;font-weight:bold;font-stretch:normal;font-family:roboto;-inkscape-font-specification:'roboto Bold';fill:none;fill-opacity:1;stroke:#ffffff;stroke-opacity:1" d="m 260.09766,350.41745 -2.08985,-0.0586 q -1.26953,0 -2.08984,0.52734 -0.82031,0.52734 -1.25,1.48437 l 0,14.27735 -5.6836,0 0,-21.13281 5.29297,0 0.25391,3.125 q 0.74219,-1.66016 1.91406,-2.57813 1.19141,-0.9375 2.73438,-0.9375 0.42968,0 0.78125,0.0781 0.37109,0.0586 0.74218,0.15625 l -0.60546,5.05859 z" class="CoVRoIuI_7"></path>
    <path inkscape:connector-curvature="0" id="path4157" style="font-style:normal;font-variant:normal;font-weight:bold;font-stretch:normal;font-family:roboto;-inkscape-font-specification:'roboto Bold';fill:none;fill-opacity:1;stroke:#ffffff;stroke-opacity:1" d="m 275.37109,366.64792 q -0.3125,-0.72266 -0.54687,-1.52344 -0.21485,-0.80078 -0.3125,-1.64062 -0.87891,1.54296 -2.32422,2.55859 -1.42578,1.01562 -3.41797,1.01562 -3.32031,0 -5.11719,-1.69921 -1.79687,-1.71875 -1.79687,-4.66797 0,-3.10547 2.38281,-4.80469 2.40234,-1.71875 6.99219,-1.71875 l 3.18359,0 0,-1.67969 q 0,-1.52344 -0.80078,-2.36328 -0.80078,-0.83984 -2.36328,-0.83984 -1.38672,0 -2.14844,0.68359 -0.74219,0.66406 -0.74219,1.85547 l -5.50781,-0.0195 -0.0195,-0.11719 q -0.13672,-2.67578 2.32422,-4.60937 2.46094,-1.95313 6.46484,-1.95313 3.78907,0 6.15235,1.93359 2.36328,1.91407 2.36328,5.46875 l 0,8.73047 q 0,1.48438 0.21484,2.79297 0.23438,1.3086 0.72266,2.59766 l -5.70313,0 z m -5.21484,-3.8086 q 1.50391,0 2.67578,-0.74218 1.17188,-0.74219 1.58203,-1.71875 l 0,-2.98828 -3.18359,0 q -1.81641,0 -2.75391,0.91796 -0.9375,0.89844 -0.9375,2.1875 0,1.05469 0.70313,1.69922 0.70312,0.64453 1.91406,0.64453 z" class="CoVRoIuI_8"></path>
    <path inkscape:connector-curvature="0" id="path4159" style="font-style:normal;font-variant:normal;font-weight:bold;font-stretch:normal;font-family:roboto;-inkscape-font-specification:'roboto Bold';fill:none;fill-opacity:1;stroke:#ffffff;stroke-opacity:1" d="m 283.57422,356.25729 q 0,-5 2.14844,-8.0664 2.16796,-3.06641 6.09375,-3.06641 1.58203,0 2.85156,0.68359 1.26953,0.6836 2.22656,1.95313 l 0,-11.58203 5.72266,0 0,30.46875 -4.90235,0 -0.46875,-2.57813 q -0.99609,1.46485 -2.36328,2.22657 -1.34765,0.76171 -3.10547,0.76171 -3.88672,0 -6.05468,-2.85156 -2.14844,-2.85156 -2.14844,-7.53906 l 0,-0.41016 z m 5.68359,0.41016 q 0,2.77344 0.9375,4.375 0.9375,1.58203 3.04688,1.58203 1.23047,0 2.14843,-0.48828 0.91797,-0.50781 1.50391,-1.46484 l 0,-9.00391 q -0.58594,-0.99609 -1.50391,-1.54297 -0.89843,-0.56641 -2.10937,-0.56641 -2.08984,0 -3.06641,1.85547 -0.95703,1.85547 -0.95703,4.84375 l 0,0.41016 z" class="CoVRoIuI_9"></path>
    <path inkscape:connector-curvature="0" id="path4161" style="font-style:normal;font-variant:normal;font-weight:bold;font-stretch:normal;font-family:roboto;-inkscape-font-specification:'roboto Bold';fill:none;fill-opacity:1;stroke:#ffffff;stroke-opacity:1" d="m 313.02734,366.64792 -5.70312,0 0,-30.46875 5.70312,0 0,30.46875 z" class="CoVRoIuI_10"></path>
    <path inkscape:connector-curvature="0" id="path4163" style="font-style:normal;font-variant:normal;font-weight:bold;font-stretch:normal;font-family:roboto;-inkscape-font-specification:'roboto Bold';fill:none;fill-opacity:1;stroke:#ffffff;stroke-opacity:1" d="m 323.73047,366.64792 -5.70313,0 0,-21.13281 5.70313,0 0,21.13281 z m 0,-26.19141 -5.70313,0 0,-4.27734 5.70313,0 0,4.27734 z" class="CoVRoIuI_11"></path>
    <path inkscape:connector-curvature="0" id="path4165" style="font-style:normal;font-variant:normal;font-weight:bold;font-stretch:normal;font-family:roboto;-inkscape-font-specification:'roboto Bold';fill:none;fill-opacity:1;stroke:#ffffff;stroke-opacity:1" d="m 333.65234,345.51511 0.25391,3.02734 q 1.05469,-1.62109 2.59766,-2.51953 1.54296,-0.89844 3.45703,-0.89844 3.20312,0 5,2.01172 1.79687,2.01172 1.79687,6.30859 l 0,13.20313 -5.72265,0 0,-13.1836 q 0,-2.1289 -0.85938,-3.00781 -0.85937,-0.89844 -2.59766,-0.89844 -1.13281,0 -2.03125,0.46875 -0.89843,0.44922 -1.5039,1.28907 l 0,15.33203 -5.70313,0 0,-21.13281 5.3125,0 z" class="CoVRoIuI_12"></path>
    <path inkscape:connector-curvature="0" id="path4167" style="font-style:normal;font-variant:normal;font-weight:bold;font-stretch:normal;font-family:roboto;-inkscape-font-specification:'roboto Bold';fill:none;fill-opacity:1;stroke:#ffffff;stroke-opacity:1" d="m 350.13672,356.25729 q 0,-5 2.16797,-8.0664 2.1875,-3.06641 6.11328,-3.06641 1.77734,0 3.125,0.80078 1.34765,0.80078 2.30469,2.28516 l 0.44921,-2.69531 4.92188,0 0,21.03515 q 0,4.1211 -2.71484,6.36719 -2.69532,2.26562 -7.51954,2.26562 -1.60156,0 -3.39843,-0.44921 -1.79688,-0.42969 -3.32032,-1.19141 l 1.05469,-4.25781 q 1.3086,0.625 2.65625,0.9375 1.36719,0.33203 2.96875,0.33203 2.34375,0 3.4375,-0.97656 1.11328,-0.97657 1.11328,-3.04688 l 0,-1.91406 q -0.9375,1.1914 -2.20703,1.8164 -1.26953,0.625 -2.91015,0.625 -3.88672,0 -6.07422,-2.85156 -2.16797,-2.87109 -2.16797,-7.53906 l 0,-0.41016 z m 5.70312,0.41016 q 0,2.77344 0.9375,4.375 0.9375,1.58203 3.04688,1.58203 1.30859,0 2.20703,-0.46875 0.91797,-0.48828 1.46484,-1.40625 l 0,-9.17969 q -0.54687,-0.95703 -1.46484,-1.48437 -0.89844,-0.52735 -2.16797,-0.52735 -2.08984,0 -3.06641,1.85547 -0.95703,1.85547 -0.95703,4.84375 l 0,0.41016 z" class="CoVRoIuI_13"></path>
  </g>
<style>.CoVRoIuI_0{stroke-dasharray:159 161;stroke-dashoffset:160;animation:CoVRoIuI_draw 1200ms linear 0ms forwards;}.CoVRoIuI_1{stroke-dasharray:69 71;stroke-dashoffset:70;animation:CoVRoIuI_draw 1200ms linear 46ms forwards;}.CoVRoIuI_2{stroke-dasharray:110 112;stroke-dashoffset:111;animation:CoVRoIuI_draw 1200ms linear 92ms forwards;}.CoVRoIuI_3{stroke-dasharray:113 115;stroke-dashoffset:114;animation:CoVRoIuI_draw 1200ms linear 138ms forwards;}.CoVRoIuI_4{stroke-dasharray:82 84;stroke-dashoffset:83;animation:CoVRoIuI_draw 1200ms linear 184ms forwards;}.CoVRoIuI_5{stroke-dasharray:147 149;stroke-dashoffset:148;animation:CoVRoIuI_draw 1200ms linear 230ms forwards;}.CoVRoIuI_6{stroke-dasharray:82 84;stroke-dashoffset:83;animation:CoVRoIuI_draw 1200ms linear 276ms forwards;}.CoVRoIuI_7{stroke-dasharray:69 71;stroke-dashoffset:70;animation:CoVRoIuI_draw 1200ms linear 323ms forwards;}.CoVRoIuI_8{stroke-dasharray:120 122;stroke-dashoffset:121;animation:CoVRoIuI_draw 1200ms linear 369ms forwards;}.CoVRoIuI_9{stroke-dasharray:134 136;stroke-dashoffset:135;animation:CoVRoIuI_draw 1200ms linear 415ms forwards;}.CoVRoIuI_10{stroke-dasharray:73 75;stroke-dashoffset:74;animation:CoVRoIuI_draw 1200ms linear 461ms forwards;}.CoVRoIuI_11{stroke-dasharray:74 76;stroke-dashoffset:75;animation:CoVRoIuI_draw 1200ms linear 507ms forwards;}.CoVRoIuI_12{stroke-dasharray:113 115;stroke-dashoffset:114;animation:CoVRoIuI_draw 1200ms linear 553ms forwards;}.CoVRoIuI_13{stroke-dasharray:149 151;stroke-dashoffset:150;animation:CoVRoIuI_draw 1200ms linear 600ms forwards;}@keyframes CoVRoIuI_draw{100%{stroke-dashoffset:0;}}@keyframes CoVRoIuI_fade{0%{stroke-opacity:1;}93.33333333333333%{stroke-opacity:1;}100%{stroke-opacity:0;}}</style></svg>
